<mxfile host="app.diagrams.net" modified="2024-05-21T17:20:09.334Z" agent="Mozilla/5.0 (Windows NT 10.0; Win64; x64) AppleWebKit/537.36 (KHTML, like Gecko) Chrome/125.0.0.0 Safari/537.36" version="24.4.4" etag="tO7TbpoqdrhrCdB7Cl7R" type="github">
  <diagram name="Page-1" id="Kzgm1E7g41FoxCn2kqfM">
    <mxGraphModel>
      <root>
        <mxCell id="0" />
        <mxCell id="1" parent="0" />
      </root>
    </mxGraphModel>
  </diagram>
</mxfile>
